HIERARCHY
ROOT Hips
{
	OFFSET 0.000000 0.000000 0.000000
	CHANNELS 6 Xposition Yposition Zposition Zrotation Yrotation Xrotation 
	JOINT LHipJoint
	{
		OFFSET 0.000000 0.000000 0.000000
		CHANNELS 3 Zrotation Yrotation Xrotation
		JOINT LeftUpLeg
		{
			OFFSET 1.363060 -1.794630 0.839290
			CHANNELS 3 Zrotation Yrotation Xrotation
			JOINT LeftLeg
			{
				OFFSET 2.448110 -6.726130 0.000000
				CHANNELS 3 Zrotation Yrotation Xrotation
				JOINT LeftFoot
				{
					OFFSET 2.562200 -7.039590 0.000000
					CHANNELS 3 Zrotation Yrotation Xrotation
					JOINT LeftToeBase
					{
						OFFSET 0.157640 -0.433110 2.322550
						CHANNELS 3 Zrotation Yrotation Xrotation
						End Site
						{
							OFFSET 0.000000 0.000000 0.000000
						}
					}
				}
			}
		}
	}
	JOINT RHipJoint
	{
		OFFSET 0.000000 0.000000 0.000000
		CHANNELS 3 Zrotation Yrotation Xrotation
		JOINT RightUpLeg
		{
			OFFSET -1.305520 -1.794630 0.839290
			CHANNELS 3 Zrotation Yrotation Xrotation
			JOINT RightLeg
			{
				OFFSET -2.542530 -6.985550 0.000000
				CHANNELS 3 Zrotation Yrotation Xrotation
				JOINT RightFoot
				{
					OFFSET -2.568260 -7.056230 0.000000
					CHANNELS 3 Zrotation Yrotation Xrotation
					JOINT RightToeBase
					{
						OFFSET -0.164730 -0.452590 2.363150
						CHANNELS 3 Zrotation Yrotation Xrotation
						End Site
						{
							OFFSET 0.000000 0.000000 0.000000
						}
					}
				}
			}
		}
	}
}
MOTION
Frames: 22
Frame Time: 0.008333
0.871563 17.039291 1.494146 3.710332 26.165032 19.276363 -11.094792 2.556843 -4.896955 -13.929391 19.963243 -12.203160 -2.577442 0.838976 22.506210 2.031882 13.082695 -7.267940 0.038700 -0.000000 -53.096800 8.383139 0.867457 1.104283 10.075246 -1.130246 -37.706964 2.667689 1.344689 4.070104 -2.560181 -11.029959 -3.608566 -2.098200 0.000000 -4.269700
0.908110 17.015466 1.613466 3.863816 26.237970 19.307146 -11.168827 2.608450 -4.777278 -13.711622 19.606221 -11.988317 -2.510791 0.901820 23.125580 2.051630 13.274484 -7.099418 0.081600 -0.000001 -54.009500 8.395536 0.813637 1.052082 10.037015 -1.341990 -37.263720 2.613201 1.305704 4.023715 -2.567992 -11.430724 -2.568119 -2.399100 0.000001 -5.129100
0.946303 16.994453 1.733788 3.964671 26.265811 19.362716 -11.258215 2.649616 -4.645123 -13.479607 19.211728 -11.886605 -2.433969 0.969476 23.820587 2.080026 13.532063 -6.875560 0.141800 -0.000000 -54.962200 8.385013 0.745677 1.023492 10.041318 -1.454134 -36.954747 2.567524 1.254080 4.101807 -2.571430 -11.812615 -1.483601 -2.720300 0.000000 -6.092200
0.986774 16.977103 1.854018 3.986275 26.236823 19.420929 -11.372079 2.677065 -4.513034 -13.198564 18.839285 -11.908567 -2.347694 1.044313 24.607918 2.111048 13.823491 -6.575137 0.224000 0.000000 -56.043500 8.342059 0.661240 1.018513 10.112716 -1.441260 -36.768184 2.533208 1.191497 4.328672 -2.576061 -12.176202 -0.439588 -3.041299 0.000000 -7.079600
1.028630 16.963962 1.973670 3.949902 26.137339 19.485946 -11.501173 2.693676 -4.387713 -12.898577 18.500816 -12.042952 -2.252264 1.125578 25.476488 2.145772 14.158954 -6.171188 0.337200 0.000001 -57.257400 8.273432 0.567454 1.031009 10.234289 -1.324296 -36.721313 2.509482 1.113263 4.761525 -2.580084 -12.473924 0.449998 -3.321800 0.000000 -7.945299
1.072080 16.955502 2.092069 3.837925 25.964541 19.537855 -11.651671 2.697545 -4.280694 -12.548232 18.252128 -12.295172 -2.149185 1.215975 26.443215 2.177482 14.498830 -5.640411 0.486500 -0.000000 -58.673600 8.174276 0.463309 1.057830 10.426298 -1.097371 -36.780649 2.498124 1.023452 5.390106 -2.586440 -12.704865 1.120166 -3.541700 -0.000000 -8.602800
1.116439 16.951839 2.208793 3.656087 25.719070 19.566441 -11.820509 2.689389 -4.200225 -12.144305 18.122311 -12.653922 -2.039580 1.316607 27.508927 2.203006 14.822592 -4.956926 0.678601 0.000000 -60.319000 8.048581 0.352129 1.091477 10.688749 -0.781065 -36.915987 2.498997 0.923665 6.203993 -2.594231 -12.851903 1.516628 -3.679000 0.000000 -8.973701
1.160142 16.952869 2.323645 3.434832 25.402159 19.569853 -11.994857 2.672367 -4.154923 -11.713608 18.117035 -13.085111 -1.924540 1.427212 28.656638 2.222445 15.126851 -4.093829 0.921000 0.000000 -62.146100 7.910474 0.242890 1.122303 10.987080 -0.404792 -37.084382 2.506137 0.815399 7.170755 -2.602261 -12.904415 1.616241 -3.720901 0.000000 -9.048800
1.202065 16.958290 2.436557 3.189345 25.023806 19.543752 -12.168056 2.647576 -4.149478 -11.261201 18.241902 -13.570656 -1.805383 1.548141 29.882786 2.234372 15.393074 -3.036286 1.215500 -0.000000 -64.086100 7.768606 0.140399 1.145451 11.303587 0.013492 -37.232839 2.516041 0.705297 8.221694 -2.611875 -12.878249 1.434806 -3.672899 0.000000 -8.837999
1.242075 16.967676 2.547454 2.910759 24.605899 19.474382 -12.342513 2.613200 -4.182966 -10.757869 18.502832 -14.104220 -1.682485 1.680277 31.193338 2.235952 15.588648 -1.769826 1.559500 -0.000001 -66.156200 7.622976 0.043277 1.154887 11.657884 0.448600 -37.306817 2.532229 0.601398 9.280934 -2.622787 -12.791633 1.013019 -3.549600 -0.000000 -8.359400
1.278127 16.980383 2.656709 2.647365 24.158916 19.381363 -12.499344 2.573921 -4.252496 -10.258328 18.852393 -14.656182 -1.557078 1.820446 32.565421 2.232682 15.728826 -0.302935 1.948100 0.000000 -68.086400 7.493124 -0.037543 1.149672 11.987308 0.877235 -37.275154 2.545841 0.509363 10.274889 -2.636033 -12.663880 0.403812 -3.368600 0.000000 -7.682900
1.310518 16.995772 2.764297 2.382213 23.711275 19.250091 -12.643804 2.526371 -4.350411 -9.724709 19.273849 -15.220669 -1.428830 1.968015 34.001380 2.223993 15.786524 1.362152 2.369600 -0.000000 -69.886001 7.375167 -0.106167 1.124526 12.323250 1.273431 -37.095244 2.562933 0.436575 11.131335 -2.650612 -12.517229 -0.323655 -3.153300 0.000000 -6.861100
1.338142 17.013034 2.870781 2.151776 23.278242 19.105082 -12.762910 2.474625 -4.464057 -9.204690 19.702913 -15.788168 -1.299237 2.118378 35.484188 2.216064 15.778925 3.186793 2.809000 0.000000 -71.271100 7.282154 -0.156726 1.081205 12.624778 1.609413 -36.775612 2.579561 0.385091 11.813454 -2.664625 -12.356843 -1.112026 -2.919600 -0.000000 -5.954200
1.361053 17.031440 2.976406 1.958884 22.881156 18.950612 -12.856225 2.418556 -4.580548 -8.699056 20.094149 -16.355721 -1.169304 2.268300 37.005884 2.211681 15.705070 5.129799 3.247900 0.000000 -72.125200 7.214731 -0.190841 1.018593 12.896581 1.861818 -36.318378 2.597685 0.356496 12.293877 -2.675671 -12.190619 -1.901172 -2.684700 -0.000000 -5.020700
1.379386 17.050288 3.081524 1.813058 22.536625 18.798787 -12.921259 2.359565 -4.686029 -8.225577 20.396942 -16.924378 -1.040673 2.413714 38.554732 2.213954 15.576102 7.129954 3.667000 0.000000 -72.317000 7.175231 -0.209563 0.937484 13.132887 2.009124 -35.748796 2.617469 0.348860 12.574637 -2.680592 -12.016416 -2.645580 -2.459900 -0.000001 -4.113600
1.393669 17.069059 3.186373 1.715367 22.255509 18.658546 -12.959568 2.298392 -4.769404 -7.793316 20.572916 -17.498636 -0.915637 2.551809 40.120345 2.224024 15.402239 9.112384 4.047601 0.000000 -71.755800 7.161642 -0.215318 0.840292 13.333965 2.045644 -35.093092 2.638752 0.360086 12.665729 -2.678013 -11.838849 -3.307274 -2.256200 0.000000 -3.280499
1.404433 17.087251 3.291292 1.673164 22.043394 18.545226 -12.971091 2.237350 -4.819966 -7.424669 20.588201 -18.088626 -0.795976 2.679607 41.688978 2.242621 15.209119 10.994560 4.378501 0.000000 -70.452299 7.173575 -0.210380 0.730877 13.494431 1.964558 -34.399194 2.660764 0.384633 12.608531 -2.665591 -11.648563 -3.872138 -2.076000 0.000000 -2.552500
1.412697 17.104731 3.395923 1.666961 21.900129 18.451896 -12.963567 2.174497 -4.838577 -7.100049 20.444935 -18.694260 -0.683430 2.798272 43.257769 2.265423 14.992004 12.688822 4.641600 0.000000 -68.277800 7.201562 -0.199392 0.613357 13.627776 1.796346 -33.671557 2.682569 0.421558 12.413166 -2.647337 -11.470265 -4.323261 -1.927400 0.000000 -1.956800
1.419196 17.121305 3.500693 1.705183 21.817421 18.397982 -12.937492 2.112948 -4.819392 -6.847277 20.131875 -19.331510 -0.578002 2.906126 44.808309 2.292544 14.796097 14.123627 4.844300 0.000000 -65.465699 7.244668 -0.184143 0.494564 13.724754 1.547688 -32.971552 2.703032 0.463334 12.148248 -2.622112 -11.287159 -4.681742 -1.802800 -0.000001 -1.489600
1.424902 17.137047 3.605334 1.773431 21.781743 18.380867 -12.899208 2.051339 -4.767014 -6.654117 19.668911 -20.000801 -0.479024 3.004371 46.328094 2.321721 14.642032 15.250358 4.992300 -0.000000 -62.217500 7.294911 -0.167911 0.380518 13.793243 1.256865 -32.311467 2.721018 0.507664 11.843324 -2.594465 -11.114282 -4.963156 -1.700700 0.000000 -1.143101
1.430552 17.152060 3.709652 1.863192 21.776059 18.400459 -12.852659 1.989220 -4.687405 -6.515555 19.082537 -20.703730 -0.385532 3.094271 47.807642 2.350849 14.547602 16.028350 5.092100 0.000000 -58.615400 7.347222 -0.152770 0.276905 13.835781 0.956138 -31.709529 2.735573 0.551098 11.537847 -2.567651 -10.955332 -5.196771 -1.614400 0.000000 -0.893101
1.436789 17.166571 3.813395 1.964082 21.780019 18.452964 -12.801638 1.924859 -4.587493 -6.421491 18.401908 -21.434009 -0.296056 3.175970 49.228003 2.381087 14.540667 16.468294 5.162900 0.000000 -55.050600 7.396602 -0.140044 0.188570 13.856040 0.681748 -31.169476 2.745714 0.592010 11.256609 -2.545585 -10.818648 -5.410035 -1.538201 0.000000 -0.711200
